<?xml version="1.0" standalone="no"?>
<!DOCTYPE svg PUBLIC "-//W3C//DTD SVG 20010904//EN"
 "http://www.w3.org/TR/2001/REC-SVG-20010904/DTD/svg10.dtd">
<svg version="1.0" xmlns="http://www.w3.org/2000/svg"
 width="1639.000000pt" height="1639.000000pt" viewBox="0 0 1639.000000 1639.000000"
 preserveAspectRatio="xMidYMid meet">

<g transform="translate(0.000000,1639.000000) scale(0.100000,-0.100000)"
fill="#000000" stroke="none">
<path d="M2040 10035 l0 -1535 345 0 345 0 2 939 3 940 575 -937 575 -937 358
-3 357 -2 -2 1532 -3 1533 -342 3 -343 2 0 -935 c0 -515 -3 -934 -7 -932 -5 3
-267 424 -583 936 l-575 930 -352 1 -353 0 0 -1535z"/>
<path d="M4797 11558 c53 -67 993 -1533 989 -1543 -2 -7 -222 -345 -488 -751
-267 -407 -488 -745 -492 -751 -6 -10 78 -13 406 -13 l413 0 323 513 c178 281
395 624 483 761 l160 249 -169 256 c-93 141 -313 489 -487 774 l-318 517 -415
0 c-330 0 -412 -3 -405 -12z"/>
<path d="M6953 11443 c-44 -71 -173 -280 -288 -467 l-209 -338 22 -42 c12 -22
100 -160 196 -305 l174 -265 64 100 c36 54 246 378 468 719 222 341 418 644
437 673 l34 52 -410 0 -410 0 -78 -127z"/>
<path d="M8000 11255 l0 -315 448 -2 447 -3 3 -1217 2 -1218 345 0 345 0 2
1218 3 1217 448 3 447 2 0 315 0 315 -1245 0 -1245 0 0 -315z"/>
<path d="M6650 9708 c-106 -166 -193 -307 -193 -313 0 -6 127 -209 283 -453
l283 -442 408 0 c225 0 409 2 409 5 0 2 -125 195 -278 427 -153 233 -374 570
-492 750 -118 180 -218 328 -221 328 -3 0 -93 -136 -199 -302z"/>
<path d="M5513 7573 l-453 -367 83 -22 c45 -13 119 -32 163 -44 l81 -21 -18
-87 c-311 -1443 -291 -1369 -388 -1437 -37 -26 -53 -30 -119 -33 -68 -3 -83 0
-131 25 -97 50 -97 49 -225 533 -67 254 -127 457 -142 488 -96 190 -335 268
-533 175 -65 -31 -149 -111 -180 -172 -12 -23 -73 -238 -136 -478 -82 -316
-120 -445 -139 -473 -91 -137 -327 -129 -411 14 -16 27 -48 128 -81 257 -31
120 -66 234 -81 261 -34 62 -90 113 -162 147 -56 26 -58 26 -329 29 l-272 3
11 -28 c6 -15 146 -388 311 -828 165 -440 310 -818 320 -839 27 -52 112 -142
166 -173 206 -121 479 -60 610 136 34 51 73 158 242 665 111 333 210 616 221
630 40 51 130 55 173 7 9 -10 109 -294 221 -631 138 -412 215 -628 235 -661
132 -205 410 -271 622 -146 60 35 142 125 173 188 14 30 140 430 281 889 323
1059 415 1354 420 1359 2 2 79 -16 171 -41 93 -25 170 -44 172 -42 5 5 -412
1084 -419 1084 -3 0 -209 -165 -457 -367z"/>
<path d="M7201 7487 c-5 -13 -291 -700 -635 -1528 -344 -828 -626 -1509 -626
-1512 0 -4 168 -7 374 -7 l374 0 32 83 c17 45 61 161 98 257 l67 175 580 0
579 0 97 -255 97 -255 377 -3 c301 -2 376 0 372 10 -3 7 -287 693 -632 1523
-345 831 -629 1516 -632 1523 -4 9 -65 12 -259 12 l-254 0 -9 -23z m438 -1459
c89 -234 161 -429 161 -432 0 -3 -151 -6 -335 -6 -184 0 -335 2 -335 6 0 21
335 873 341 867 4 -4 80 -200 168 -435z"/>
<path d="M8510 7504 c0 -3 277 -694 616 -1535 l617 -1529 255 2 255 3 608
1514 c335 833 611 1523 615 1533 5 18 -9 18 -378 16 l-383 -3 -356 -953 c-196
-524 -358 -955 -360 -957 -2 -2 -168 428 -368 956 l-365 959 -378 0 c-208 0
-378 -3 -378 -6z"/>
<path d="M12235 7500 c-174 -35 -328 -155 -404 -313 -22 -45 -44 -109 -50
-141 -7 -40 -11 -400 -11 -1081 0 -1128 -3 -1073 65 -1210 62 -127 177 -231
314 -284 l66 -26 817 -3 c893 -3 875 -4 992 55 118 59 221 166 273 283 54 119
54 122 51 1231 l-3 1024 -28 78 c-36 102 -79 168 -158 242 -80 74 -144 109
-245 135 -74 19 -111 20 -858 19 -430 -1 -799 -5 -821 -9z m1495 -735 l0 -205
-445 0 -445 0 0 -170 0 -170 420 0 420 0 0 -210 0 -210 -420 0 -420 0 0 -205
0 -205 445 0 445 0 0 -205 0 -205 -670 0 -670 0 0 995 0 995 670 0 670 0 0
-205z"/>
</g>
</svg>
